Coordinates
version=1
nRows=17
nColumns=24
inDegrees=yes

Units are S.I. units (second, meters, Newtons, ...)
Angles are in degrees.

endheader
time	pelvis_tilt	pelvis_list	pelvis_rotation	pelvis_tx	pelvis_ty	pelvis_tz	hip_flexion_r	hip_adduction_r	hip_rotation_r	knee_angle_r	ankle_angle_r	subtalar_angle_r	mtp_angle_r	hip_flexion_l	hip_adduction_l	hip_rotation_l	knee_angle_l	ankle_angle_l	subtalar_angle_l	mtp_angle_l	lumbar_extension	lumbar_bending	lumbar_rotation
      4.65500000	     -9.87047677	      5.06986308	     -2.48984603	     -1.00600920	     -0.02258305	     -0.72836657	     11.10823614	     -7.31457222	     -2.66848288	    -53.18868323	    -15.10392190	    -14.76285650	      2.79252353	     29.14152149	      5.27251971	    -13.61422098	    -23.75111719	     -0.17850664	    -10.48653338	      2.52793045	      7.55396417	     -5.11044470	      1.95145655
      4.66000000	     -9.93118959	      5.08661633	     -2.40999999	     -1.00072788	     -0.02194578	     -0.72908329	     12.05674165	     -7.35776652	     -2.70295711	    -54.62187173	    -14.73020348	    -15.34674969	      1.48352674	     28.76174564	      5.38371762	    -13.65660899	    -23.59262892	      0.12795233	    -10.24254030	      2.88584197	      7.57265180	     -5.14885863	      1.70994589
      4.66500000	     -9.86156510	      5.14618564	     -2.34645614	     -0.99535576	     -0.02109601	     -0.72989958	     12.83131197	     -7.48355904	     -2.74876864	    -55.88889655	    -14.51436476	    -16.05723302	      1.32706765	     28.17845025	      5.58878487	    -13.59914539	    -23.31854810	      0.35892740	    -10.18577041	      2.96136706	      7.47414802	     -5.21995601	      1.48163547
      4.67000000	    -10.00820171	      5.07051799	     -2.28870955	     -0.99023866	     -0.02048936	     -0.73053099	     13.89511899	     -7.38955552	     -2.76872546	    -57.21625825	    -13.99200863	    -16.63273708	     -0.38560925	     27.90286989	      5.58840448	    -13.60316596	    -23.17560067	      0.67855721	     -9.95704482	      3.20170076	      7.56641113	     -5.15085276	      1.25699653
      4.67500000	     -9.98446070	      5.04503842	     -2.27279205	     -0.98507428	     -0.01961665	     -0.73123630	     14.75336611	     -7.38060001	     -2.77577062	    -58.37231517	    -13.73368713	    -17.34619527	     -0.91698981	     27.37544993	      5.68382508	    -13.51219957	    -22.89690216	      0.86210780	     -9.97087859	      3.24893711	      7.48917141	     -5.11833121	      1.09470332
      4.68000000	    -10.06879704	      4.98487720	     -2.16945370	     -0.97995627	     -0.01893132	     -0.73199383	     15.72335390	     -7.35581894	     -2.88376555	    -59.53557142	    -13.12353252	    -17.66383003	     -2.26155191	     27.00526194	      5.74734399	    -13.43766681	    -22.69831261	      1.15889451	     -9.78506580	      3.34623252	      7.51698405	     -5.06428794	      0.83109661
      4.68500000	    -10.06440240	      4.93859560	     -2.12260394	     -0.97483791	     -0.01807669	     -0.73272244	     16.58185085	     -7.33873018	     -2.93777678	    -60.52738790	    -12.84395409	    -18.24762755	     -2.43629507	     26.49962205	      5.82944669	    -13.35346930	    -22.41485727	      1.34251695	     -9.76779282	      3.36561644	      7.45706464	     -5.01058681	      0.61006719
      4.69000000	    -10.20525894	      4.84208264	     -2.06568079	     -0.96979235	     -0.01740022	     -0.73345203	     17.61676153	     -7.25273162	     -2.98654873	    -61.49674457	    -12.49058198	    -18.63741295	     -2.92219653	     26.17035737	      5.85273717	    -13.20027155	    -22.17112753	      1.58651717	     -9.70656775	      3.36177967	      7.54930920	     -4.89451130	      0.41875479
      4.69500000	    -10.15500069	      4.77525527	     -1.99983785	     -0.96469663	     -0.01649360	     -0.73417702	     18.39013387	     -7.21547209	     -3.04342066	    -62.31866263	    -12.12212210	    -18.94311201	     -2.92584379	     25.59444759	      5.92712915	    -13.04989010	    -21.85520519	      1.79424058	     -9.62893256	      3.39345802	      7.43750831	     -4.82329827	      0.21428198
      4.70000000	    -10.31449729	      4.71397273	     -1.93057036	     -0.95968487	     -0.01588295	     -0.73490554	     19.43419228	     -7.18327292	     -3.12541591	    -63.14748900	    -11.71890006	    -19.19832245	     -3.21657307	     25.28807322	      5.98569743	    -12.97208198	    -21.59617305	      1.97834958	     -9.62093471	      3.32142695	      7.55554075	     -4.74474950	     -0.01376970
      4.70500000	    -10.28014291	      4.61810213	     -1.89045595	     -0.95460330	     -0.01498460	     -0.73559738	     20.21056797	     -7.10083340	     -3.17249951	    -63.80814776	    -11.37958493	    -19.38826640	     -3.18932128	     24.71240528	      6.02237364	    -12.79392120	    -21.25147892	      2.18745542	     -9.55441134	      3.33672867	      7.47180209	     -4.62831556	     -0.17142295
      4.71000000	    -10.40066738	      4.56592050	     -1.80552730	     -0.94957409	     -0.01435119	     -0.73633808	     21.17057605	     -7.08491034	     -3.25260538	    -64.46011908	    -10.92223518	    -19.42368991	     -3.19161493	     24.33911281	      6.10348419	    -12.69385723	    -20.94644082	      2.37244275	     -9.53329937	      3.24379237	      7.55277408	     -4.55863719	     -0.38932014
      4.71500000	    -10.38769215	      4.47493434	     -1.77187426	     -0.94450808	     -0.01349801	     -0.73694781	     21.94967258	     -6.99473985	     -3.30546766	    -64.96729289	    -10.57465232	    -19.54585658	     -3.10179218	     23.77857880	      6.13286882	    -12.53425123	    -20.58247275	      2.55565052	     -9.47111082	      3.23273708	      7.50156401	     -4.45227203	     -0.53918548
      4.72000000	    -10.48653006	      4.42250778	     -1.70350107	     -0.93947292	     -0.01284760	     -0.73766705	     22.85252258	     -6.96605212	     -3.34605333	    -65.44217691	    -10.10364411	    -19.40942185	     -2.78233423	     23.35740818	      6.21421056	    -12.41729587	    -20.23321447	      2.73219727	     -9.47295571	      3.05758338	      7.56903610	     -4.37630326	     -0.73423407
      4.72500000	    -10.47392379	      4.35952975	     -1.65016472	     -0.93438295	     -0.01203930	     -0.73827007	     23.59492949	     -6.91603800	     -3.43111650	    -65.78952234	     -9.70813332	    -19.46923765	     -2.56849817	     22.78350378	      6.27420835	    -12.27745414	    -19.84181064	      2.90587667	     -9.37523419	      3.03071191	      7.52913213	     -4.30248467	     -0.88659521
      4.73000000	    -10.48090223	      4.31488352	     -1.56315494	     -0.92930087	     -0.01132240	     -0.73899739	     24.33893076	     -6.91207713	     -3.50211109	    -66.07547294	     -9.19272706	    -19.23055857	     -2.03266100	     22.23695304	      6.36985963	    -12.18436256	    -19.44921464	      3.10416042	     -9.31764554	      2.93466880	      7.50396723	     -4.24072219	     -1.07875005
      4.73500000	    -10.44720249	      4.27406120	     -1.53112599	     -0.92418321	     -0.01047894	     -0.73968672	     25.00270834	     -6.88377392	     -3.50307202	    -66.16895917	     -9.03797637	    -19.35266030	     -0.12384930	     21.61213655	      6.47099982	    -12.03379123	    -19.00604761	      3.26834239	     -9.33876227	      2.39995456	      7.45296812	     -4.16800114	     -1.23104491
